<svg id="visual" viewBox="0 0 900 600" width="900" height="600" xmlns="http://www.w3.org/2000/svg" xmlns:xlink="http://www.w3.org/1999/xlink" version="1.1"><rect x="0" y="0" width="900" height="600" fill="#1e2939"></rect><path d="M0 399L21.5 413.5C43 428 86 457 128.8 472.5C171.7 488 214.3 490 257.2 482C300 474 343 456 385.8 437.2C428.7 418.3 471.3 398.7 514.2 388.5C557 378.3 600 377.7 642.8 392.3C685.7 407 728.3 437 771.2 442.2C814 447.3 857 427.7 878.5 417.8L900 408L900 601L878.5 601C857 601 814 601 771.2 601C728.3 601 685.7 601 642.8 601C600 601 557 601 514.2 601C471.3 601 428.7 601 385.8 601C343 601 300 601 257.2 601C214.3 601 171.7 601 128.8 601C86 601 43 601 21.5 601L0 601Z" fill="#F7770F" stroke-linecap="round" stroke-linejoin="miter"></path></svg>